<?xml version="1.0" encoding="utf-8"?>
<!-- Generator: Adobe Illustrator 24.0.0, SVG Export Plug-In . SVG Version: 6.00 Build 0)  -->
<svg version="1.1" id="Capa_1" xmlns="http://www.w3.org/2000/svg" xmlns:xlink="http://www.w3.org/1999/xlink" x="0px" y="0px"
	 viewBox="0 0 595.28 841.89" style="enable-background:new 0 0 595.28 841.89;" xml:space="preserve">
<style type="text/css">
	.st0{stroke:#FFFFFF;stroke-miterlimit:10;}
</style>
<circle class="st0" cx="430.42" cy="188.83" r="54.5"/>
<rect x="317.68" y="236.78" transform="matrix(0.9378 0.3472 -0.3472 0.9378 138.5165 -110.5222)" class="st0" width="120" height="189"/>
<rect x="383.3" y="369.94" transform="matrix(0.837 -0.5472 0.5472 0.837 -167.995 288.8319)" class="st0" width="35" height="112.9"/>
<rect x="448.6" y="260.05" transform="matrix(-0.9068 0.4216 -0.4216 -0.9068 1029.7844 441.4224)" class="st0" width="35" height="149"/>
<rect x="274.26" y="185.12" transform="matrix(-0.185 -0.9827 0.9827 -0.185 90.5942 594.3647)" class="st0" width="35" height="149"/>
<rect x="233.12" y="358.66" transform="matrix(0.6072 0.7946 -0.7946 0.6072 442.6312 -28.9793)" class="st0" width="35" height="149"/>
<rect x="352.07" y="414.07" transform="matrix(-0.5 -0.866 0.866 -0.5 131.2386 1052.9156)" class="st0" width="35" height="149"/>
</svg>
